<?xml version="1.0" standalone="no"?>
<!DOCTYPE svg PUBLIC "-//W3C//DTD SVG 20010904//EN"
 "http://www.w3.org/TR/2001/REC-SVG-20010904/DTD/svg10.dtd">
<svg version="1.0" xmlns="http://www.w3.org/2000/svg"
 width="192.000000pt" height="192.000000pt" viewBox="0 0 192.000000 192.000000"
 preserveAspectRatio="xMidYMid meet">
<metadata>
Created by potrace 1.10, written by Peter Selinger 2001-2011
</metadata>
<g transform="translate(0.000000,192.000000) scale(0.050000,-0.050000)"
fill="#000000" stroke="none">
<path d="M1620 3530 c-1325 -227 -1884 -1886 -973 -2883 1009 -1103 2843 -513
3017 971 136 1161 -880 2112 -2044 1912z m607 -159 c526 -51 1078 -554 1238
-1128 49 -174 71 -587 38 -703 -11 -38 -32 -115 -46 -170 -60 -243 -251 -552
-437 -710 -132 -112 -167 -139 -183 -139 -12 -1 -3 124 13 172 4 13 -32 89
-81 170 -108 179 -107 163 -7 318 46 70 84 137 86 148 2 12 10 33 19 47 9 15
10 51 2 80 -8 30 -16 79 -19 110 -15 161 -227 333 -460 372 -77 14 -160 38
-185 54 -42 27 -160 228 -134 228 7 0 -2 14 -20 31 -61 62 -41 109 117 275
244 257 211 653 -68 808 -116 65 -119 68 -49 57 33 -5 111 -14 176 -20z m-226
-122 c121 -42 166 -109 176 -263 15 -248 -68 -391 -289 -496 -133 -63 -134
-43 21 -320 l129 -230 -44 -48 c-88 -95 -334 -155 -334 -82 0 30 -173 501
-183 499 -91 -19 -90 -18 -104 -218 -19 -264 -45 -311 -171 -311 -53 0 -126
-6 -162 -13 -73 -15 -74 -3 -21 213 30 124 119 708 110 718 -5 4 -22 -4 -39
-18 -40 -33 -45 -27 -79 101 -37 143 -7 184 230 320 266 152 576 212 760 148z
m-1071 -261 c-73 -107 -80 -182 -29 -309 49 -124 46 -328 -11 -597 -45 -218
-40 -280 32 -368 33 -41 69 -69 80 -63 10 6 18 -2 18 -18 0 -73 274 -7 394 95
66 55 144 48 147 -14 1 -13 4 -100 8 -194 3 -93 14 -217 25 -275 11 -59 12
-151 3 -210 -9 -58 -22 -176 -30 -262 l-13 -157 88 -83 c116 -110 309 -122
427 -28 87 69 75 71 175 -37 46 -50 110 -105 142 -121 75 -39 73 -40 -140 -86
-194 -41 -412 -50 -526 -21 -38 9 -121 27 -182 39 -1138 225 -1577 1801 -736
2641 153 153 204 180 128 68z m1531 -1220 c305 -85 351 -361 100 -594 l-120
-111 41 -51 c106 -135 258 -384 248 -408 -5 -15 -10 -42 -10 -61 0 -22 -42
-49 -129 -81 -161 -61 -154 -62 -198 30 -209 440 -345 556 -351 303 -4 -160
-64 -248 -152 -223 -22 6 -78 20 -125 31 -92 22 -103 47 -64 150 23 61 73 382
82 527 6 87 4 90 -48 84 -66 -8 -83 168 -24 251 97 138 506 222 750 153z"/>
<path d="M1650 2941 c-200 -55 -190 -44 -190 -190 0 -154 2 -155 175 -68 276
137 287 332 15 258z"/>
<path d="M2105 1466 c-39 -8 -76 -246 -39 -246 168 0 334 79 334 160 0 90
-109 122 -295 86z"/>
</g>
</svg>
