<?xml version="1.0" standalone="no"?>
<!DOCTYPE svg PUBLIC "-//W3C//DTD SVG 20010904//EN"
 "http://www.w3.org/TR/2001/REC-SVG-20010904/DTD/svg10.dtd">
<svg version="1.0" xmlns="http://www.w3.org/2000/svg"
 width="576.000000pt" height="576.000000pt" viewBox="0 0 576.000000 576.000000"
 preserveAspectRatio="xMidYMid meet">
<metadata>
Created by potrace 1.10, written by Peter Selinger 2001-2011
</metadata>
<g transform="translate(0.000000,576.000000) scale(0.100000,-0.100000)"
fill="#000000" stroke="none">
<path d="M2585 5295 c-71 -6 -143 -17 -158 -24 -16 -6 -43 -11 -60 -11 -18 0
-63 -9 -102 -21 -183 -54 -214 -64 -275 -87 -382 -144 -695 -351 -979 -648
-103 -108 -221 -254 -282 -349 -27 -42 -86 -137 -107 -170 -33 -54 -122 -251
-162 -360 -13 -33 -26 -69 -31 -80 -4 -11 -13 -40 -19 -65 -6 -25 -15 -54 -20
-65 -10 -22 -37 -139 -51 -225 -5 -30 -16 -95 -25 -145 -19 -110 -16 -576 5
-690 7 -38 16 -92 21 -120 13 -74 47 -216 58 -245 5 -14 20 -59 32 -100 25
-83 26 -84 71 -190 197 -465 567 -907 979 -1167 223 -140 475 -257 665 -308
28 -7 66 -18 85 -23 74 -22 218 -51 285 -57 39 -4 101 -13 138 -21 91 -19 375
-18 482 1 44 8 116 18 160 21 44 4 97 13 119 20 21 8 48 14 60 14 22 0 169 43
224 66 18 8 40 14 48 14 25 0 195 73 339 145 108 55 108 55 235 139 122 80
127 84 215 155 206 167 398 383 551 616 59 91 197 355 212 407 6 18 20 58 32
88 20 52 65 195 95 305 8 28 17 73 20 100 4 28 13 77 21 109 19 74 22 680 4
761 -6 28 -18 86 -25 130 -15 90 -29 149 -51 215 -8 25 -21 65 -28 90 -20 66
-36 111 -52 143 -8 16 -14 34 -14 42 0 7 -35 82 -78 166 -80 158 -173 305
-290 457 -85 112 -311 338 -427 428 -257 199 -546 351 -830 438 -49 15 -111
34 -136 41 -25 8 -65 17 -90 21 -24 3 -69 12 -99 20 -133 32 -519 42 -765 19z
m406 -416 c35 -12 71 -28 79 -35 8 -7 27 -17 41 -22 14 -6 44 -34 66 -63 78
-102 96 -186 90 -424 -5 -200 -15 -235 -105 -355 -90 -122 -178 -191 -358
-280 -93 -47 -124 -67 -124 -81 0 -17 23 -64 110 -224 18 -33 70 -132 116
-220 45 -88 95 -183 110 -211 l28 -52 -19 -42 c-40 -88 -67 -115 -146 -142
-139 -48 -174 -59 -214 -69 -22 -5 -54 -16 -72 -24 -17 -8 -40 -15 -51 -15
-25 0 -60 47 -68 92 -4 18 -12 42 -19 53 -6 11 -15 31 -18 45 -3 14 -17 54
-30 90 -14 36 -31 81 -38 100 -48 136 -62 170 -100 255 -5 11 -22 54 -38 95
-33 85 -46 92 -107 63 l-39 -18 -7 -130 c-3 -72 -11 -157 -18 -190 -6 -33 -15
-103 -19 -155 -7 -77 -15 -108 -42 -163 -18 -38 -42 -74 -53 -80 -12 -7 -89
-15 -181 -19 -88 -3 -185 -9 -215 -13 -46 -6 -59 -4 -78 12 -23 18 -23 21 -12
83 6 36 20 95 31 131 10 36 19 80 19 97 0 17 6 51 14 74 8 24 18 72 22 108 3
36 13 80 20 99 8 18 14 54 14 80 1 25 5 66 11 91 5 25 16 99 24 165 7 66 18
140 24 165 18 83 25 218 11 235 -11 13 -15 13 -42 -1 -16 -8 -35 -13 -42 -11
-16 6 -44 84 -56 152 -5 28 -16 72 -24 99 -26 82 -21 117 25 178 23 29 55 66
72 81 111 99 530 325 633 342 22 3 62 12 89 20 77 21 245 55 295 59 25 2 108
3 186 1 116 -2 152 -7 205 -26z m584 -2194 c201 -49 309 -96 380 -166 43 -41
95 -132 95 -165 0 -11 5 -25 11 -31 6 -6 13 -54 16 -106 5 -74 2 -107 -10
-139 -8 -24 -18 -56 -22 -72 -12 -54 -73 -133 -205 -264 -72 -73 -136 -132
-141 -132 -23 0 -4 -46 52 -127 90 -131 278 -419 308 -473 37 -64 37 -68 29
-147 -10 -91 -27 -119 -83 -140 -22 -8 -62 -23 -90 -33 -27 -10 -75 -28 -105
-40 -89 -35 -144 -48 -167 -39 -15 6 -43 50 -89 141 -36 73 -69 138 -74 143
-4 6 -24 42 -45 80 -20 39 -61 106 -89 150 -29 44 -55 87 -59 95 -4 8 -31 49
-60 90 -52 74 -53 75 -97 75 l-45 0 -7 -115 c-4 -63 -11 -133 -17 -155 -6 -22
-11 -60 -11 -85 -1 -67 -18 -94 -92 -144 -78 -53 -107 -57 -206 -26 -35 11
-76 20 -90 20 -15 0 -40 7 -56 15 -15 8 -38 15 -50 15 -12 0 -30 6 -40 13 -16
12 -17 21 -8 83 11 78 35 185 58 257 8 26 17 71 20 100 3 28 11 81 19 117 24
112 49 341 50 445 l0 100 -62 -3 c-60 -4 -63 -3 -73 23 -5 14 -10 91 -10 169
0 137 1 145 26 182 29 43 104 124 115 124 5 0 45 17 91 39 46 21 115 49 153
61 39 12 84 29 102 36 17 8 44 14 61 14 16 0 43 5 60 11 94 32 332 35 457 4z"/>
<path d="M2545 4405 c-83 -13 -134 -27 -255 -70 -73 -26 -80 -40 -80 -165 0
-60 -5 -131 -12 -159 -17 -75 -6 -81 84 -49 121 43 145 53 159 65 8 6 24 14
36 17 23 7 145 86 177 114 33 31 76 128 76 176 0 44 -18 76 -43 76 -7 0 -21 2
-32 4 -11 2 -60 -2 -110 -9z"/>
<path d="M3260 2199 c-14 -6 -50 -15 -80 -21 -30 -5 -61 -14 -67 -20 -9 -7
-13 -50 -13 -148 0 -170 -2 -167 113 -152 161 21 269 57 341 115 26 21 29 30
28 71 -4 102 -91 166 -223 165 -41 0 -85 -5 -99 -10z"/>
</g>
</svg>
